<?xml version="1.0" ?><!DOCTYPE svg  PUBLIC '-//W3C//DTD SVG 1.1//EN'  'http://www.w3.org/Graphics/SVG/1.1/DTD/svg11.dtd'><svg enable-background="new 0 0 48 48" id="Layer_1" version="1.1" viewBox="0 0 48 48" xml:space="preserve" xmlns="http://www.w3.org/2000/svg" xmlns:xlink="http://www.w3.org/1999/xlink"><g><path d="   M7.7,16.8l-0.4-1.7C6.9,13.2,8,11.7,10,11.7h18.8" fill="none" stroke="#F3AF1C" stroke-linecap="round" stroke-linejoin="round" stroke-miterlimit="10" stroke-width="2"/><line fill="none" stroke="#F3AF1C" stroke-linecap="round" stroke-linejoin="round" stroke-miterlimit="10" stroke-width="2" x1="38.1" x2="45.7" y1="39.7" y2="11.9"/><path d="   M29.3,11.7l0.6-2.4c0.5-1.9,2.5-3.5,4.4-3.5h9.3c1.9,0,3.1,1.6,2.6,3.5l-0.6,2.4" fill="none" stroke="#F3AF1C" stroke-linecap="round" stroke-linejoin="round" stroke-miterlimit="10" stroke-width="2"/><path d="   M37.8,38.5c0.5,2-0.7,3.6-2.6,3.6H10.6c-1.9,0-3.9-1.6-4.4-3.6L1.7,20.7c-0.5-2,0.7-3.6,2.6-3.6h24.6c1.9,0,3.9,1.6,4.4,3.6   L37.8,38.5z" fill="#F1F0F1" stroke="#A8A8A9" stroke-linecap="round" stroke-linejoin="round" stroke-miterlimit="10" stroke-width="2"/><line fill="none" stroke="#A8A8A9" stroke-linecap="round" stroke-linejoin="round" stroke-miterlimit="10" stroke-width="2" x1="19.6" x2="19.6" y1="35" y2="20.9"/><path d="   M19.5,34.8c-0.4-0.9-2.1-1.2-3.9-0.6c-1.8,0.6-2.9,1.8-2.5,2.8c0.4,0.9,2.1,1.2,3.9,0.6C18.8,37,19.9,35.8,19.5,34.8z" fill="none" stroke="#34A0D9" stroke-linecap="round" stroke-linejoin="round" stroke-miterlimit="10" stroke-width="2"/><path d="   M19.7,20.9c1.5-0.1,3.7,1.1,4.7,2.2c1.2,1.3,1.9,3.1,2.1,4.5" fill="none" stroke="#A8A8A9" stroke-linecap="round" stroke-linejoin="round" stroke-miterlimit="10" stroke-width="2"/></g></svg>