<?xml version="1.0" ?><!DOCTYPE svg  PUBLIC '-//W3C//DTD SVG 1.1//EN'  'http://www.w3.org/Graphics/SVG/1.1/DTD/svg11.dtd'><svg enable-background="new 0 0 48 48" id="Layer_1" version="1.1" viewBox="0 0 48 48" xml:space="preserve" xmlns="http://www.w3.org/2000/svg" xmlns:xlink="http://www.w3.org/1999/xlink"><g><line fill="none" stroke="#A8A8A9" stroke-linecap="round" stroke-linejoin="round" stroke-miterlimit="10" stroke-width="2" x1="24" x2="24" y1="37.9" y2="45.1"/><line fill="none" stroke="#A8A8A9" stroke-linecap="round" stroke-linejoin="round" stroke-miterlimit="10" stroke-width="2" x1="16.7" x2="31.3" y1="46.4" y2="46.4"/><line fill="none" stroke="#E72E29" stroke-linecap="round" stroke-linejoin="round" stroke-miterlimit="10" stroke-width="2" x1="32" x2="28.4" y1="9.9" y2="9.9"/><line fill="none" stroke="#A8A8A9" stroke-linecap="round" stroke-linejoin="round" stroke-miterlimit="10" stroke-width="2" x1="32" x2="28.4" y1="16.6" y2="16.6"/><line fill="none" stroke="#34A0D9" stroke-linecap="round" stroke-linejoin="round" stroke-miterlimit="10" stroke-width="2" x1="32" x2="28.4" y1="23.3" y2="23.3"/><line fill="none" stroke="#E72E29" stroke-linecap="round" stroke-linejoin="round" stroke-miterlimit="10" stroke-width="2" x1="19.3" x2="15.8" y1="9.9" y2="9.9"/><line fill="none" stroke="#A8A8A9" stroke-linecap="round" stroke-linejoin="round" stroke-miterlimit="10" stroke-width="2" x1="19.3" x2="15.8" y1="16.6" y2="16.6"/><line fill="none" stroke="#34A0D9" stroke-linecap="round" stroke-linejoin="round" stroke-miterlimit="10" stroke-width="2" x1="19.3" x2="15.8" y1="23.3" y2="23.3"/><path d="   M32.2,23.2c0,4.6-3.7,8.4-8.2,8.4s-8.2-3.8-8.2-8.4V10c0-4.6,3.7-8.4,8.2-8.4s8.2,3.8,8.2,8.4V23.2z" fill="none" stroke="#A8A8A9" stroke-linecap="round" stroke-linejoin="round" stroke-miterlimit="10" stroke-width="2"/><path d="   M10.4,24.1c0.3,7.6,6.3,13.8,13.6,13.8c7.3,0,13.3-6.2,13.6-13.8" fill="none" stroke="#F3AF1C" stroke-linecap="round" stroke-linejoin="round" stroke-miterlimit="10" stroke-width="2"/></g></svg>