<?xml version="1.0" ?><!DOCTYPE svg  PUBLIC '-//W3C//DTD SVG 1.1//EN'  'http://www.w3.org/Graphics/SVG/1.1/DTD/svg11.dtd'><svg enable-background="new 0 0 48 48" id="Layer_1" version="1.1" viewBox="0 0 48 48" xml:space="preserve" xmlns="http://www.w3.org/2000/svg" xmlns:xlink="http://www.w3.org/1999/xlink"><g><circle cx="16.5" cy="29.3" fill="#F3AF1C" r="1.1"/><circle cx="41.7" cy="29.3" fill="#F3AF1C" r="1.1"/><ellipse cx="29.1" cy="29.3" fill="none" rx="6.1" ry="7.2" stroke="#A8A8A9" stroke-miterlimit="10" stroke-width="2"/><rect fill="none" height="19" stroke="#A8A8A9" stroke-miterlimit="10" stroke-width="2" width="34.6" x="11.8" y="19.8"/><polyline fill="none" points="8.4,35.2 8.4,16.1 43,16.1  " stroke="#34A0D9" stroke-miterlimit="10" stroke-width="2"/><polyline fill="none" points="4.9,31.7 4.9,12.6 39.4,12.6  " stroke="#A8A8A9" stroke-miterlimit="10" stroke-width="2"/><polyline fill="none" points="1.6,28.2 1.6,9.2 36.2,9.2  " stroke="#F3AF1C" stroke-miterlimit="10" stroke-width="2"/><path d="M28.6,34.6v-1.3c-0.8,0-1.6-0.3-2-0.6l0.3-0.9c0.5,0.3,1.2,0.6,1.9,0.6c0.9,0,1.6-0.5,1.6-1.3   c0-0.7-0.5-1.2-1.5-1.6c-1.3-0.5-2.2-1.1-2.2-2.3c0-1.1,0.8-1.9,2-2.1v-1.3h0.8v1.3c0.8,0,1.3,0.2,1.7,0.5l-0.3,0.9   c-0.3-0.2-0.8-0.4-1.7-0.4c-1,0-1.4,0.6-1.4,1.1c0,0.7,0.5,1,1.6,1.5c1.4,0.6,2,1.2,2,2.4c0,1-0.7,2-2.1,2.2v1.4H28.6z" fill="#E72E29"/></g></svg>