<?xml version="1.0" ?><!DOCTYPE svg  PUBLIC '-//W3C//DTD SVG 1.1//EN'  'http://www.w3.org/Graphics/SVG/1.1/DTD/svg11.dtd'><svg enable-background="new 0 0 48 48" id="Layer_1" version="1.1" viewBox="0 0 48 48" xml:space="preserve" xmlns="http://www.w3.org/2000/svg" xmlns:xlink="http://www.w3.org/1999/xlink"><g><g><path d="M35.5,45.7c0,0.5-0.5,1-1,1H13.5c-0.6,0-1-0.5-1-1v-43c0-0.5,0.4-1,1-1h20.9c0.5,0,1,0.5,1,1V45.7z" fill="#F1F0F1"/><path d="M35.5,45.7c0,0.5-0.5,1-1,1H13.5c-0.6,0-1-0.5-1-1    v-43c0-0.5,0.4-1,1-1h20.9c0.5,0,1,0.5,1,1V45.7z" fill="none" stroke="#A8A8A9" stroke-miterlimit="10" stroke-width="2"/></g><line fill="none" stroke="#E72E29" stroke-miterlimit="10" stroke-width="2" x1="22.4" x2="25.6" y1="42.2" y2="42.2"/><line fill="none" stroke="#34A0D9" stroke-miterlimit="10" stroke-width="2" x1="19.4" x2="28.6" y1="5" y2="5"/><g><path d="M38.7,34.7c4.2-6.3,4.1-14.7-0.3-20.9" fill="none" stroke="#A8A8A9" stroke-miterlimit="10" stroke-width="2"/><path d="M9.4,14c-4.1,6.2-4.2,14.4-0.2,20.6" fill="none" stroke="#A8A8A9" stroke-miterlimit="10" stroke-width="2"/></g><g><path d="M42.6,37.5c5.3-8,5.2-18.7-0.3-26.6" fill="none" stroke="#F3AF1C" stroke-miterlimit="10" stroke-width="2"/><path d="M5.5,11.2C0.2,19,0.2,29.5,5.3,37.4" fill="none" stroke="#F3AF1C" stroke-miterlimit="10" stroke-width="2"/></g><rect fill="#FFFFFF" height="30" stroke="#A8A8A9" stroke-miterlimit="10" stroke-width="2" width="15.6" x="16.2" y="8.1"/></g></svg>