<?xml version="1.0" encoding="UTF-8" standalone="no"?>
<svg width="47px" height="50px" viewBox="0 0 47 50" version="1.1" xmlns="http://www.w3.org/2000/svg" xmlns:xlink="http://www.w3.org/1999/xlink">
    <!-- Generator: Sketch 39.1 (31720) - http://www.bohemiancoding.com/sketch -->
    <title>Slice 1</title>
    <desc>Created with Sketch.</desc>
    <defs></defs>
    <g id="Page-1" stroke="none" stroke-width="1" fill="none" fill-rule="evenodd">
        <g id="search" transform="translate(23.000000, 25.000000) rotate(-270.000000) translate(-23.000000, -25.000000) translate(0.000000, 3.000000)" stroke-width="2">
            <g id="Group">
                <path d="M42.6,43.9 C41.9,43.9 41.2,43.6 40.7,43.1 L27.2,29.9 C26.1,28.9 26.1,27.1 27.2,26.1 C28.2,25 30,25 31,26 L44.5,39.2 C45.6,40.3 45.6,42 44.5,43 C44,43.6 43.3,43.9 42.6,43.9 L42.6,43.9 Z" id="Shape" stroke="#F3AF1C"></path>
                <path d="M27.3,15.3 C27.3,18.4 26.1,21.2 24.1,23.2 C22,25.4 19.1,26.7 15.9,26.7 C9.6,26.7 4.5,21.6 4.5,15.3 C4.5,9 9.6,3.9 15.9,3.9 C22.2,3.9 27.3,9 27.3,15.3 L27.3,15.3 Z" id="Shape" stroke="#A8A8A9"></path>
                <path d="M31.2,15.3 C31.2,19.4 29.6,23.1 26.9,25.9 C24.1,28.8 20.2,30.6 15.9,30.6 C7.5,30.6 0.6,23.8 0.6,15.3 C0.6,6.9 7.4,0 15.9,0 C24.3,0.1 31.2,6.9 31.2,15.3 L31.2,15.3 Z" id="Shape" stroke="#34A0D9"></path>
            </g>
        </g>
    </g>
</svg>